<svg width="221" height="493" viewBox="0 0 221 493" fill="none" xmlns="http://www.w3.org/2000/svg">
<path d="M220.099 0.0944455V493H115.886V99.0125H112.998L0.120693 169.771V77.3516L122.144 0.0944455H220.099Z" fill="black"/>
<path d="M220.099 0.0944455H232.099V-11.9056H220.099V0.0944455ZM220.099 493V505H232.099V493H220.099ZM115.886 493H103.886V505H115.886V493ZM115.886 99.0125H127.886V87.0125H115.886V99.0125ZM112.998 99.0125V87.0125H109.548L106.624 88.845L112.998 99.0125ZM0.120693 169.771H-11.8793V191.457L6.49432 179.939L0.120693 169.771ZM0.120693 77.3516L-6.29851 67.2129L-11.8793 70.7463V77.3516H0.120693ZM122.144 0.0944455V-11.9056H118.664L115.725 -10.0443L122.144 0.0944455ZM208.099 0.0944455V493H232.099V0.0944455H208.099ZM220.099 481H115.886V505H220.099V481ZM127.886 493V99.0125H103.886V493H127.886ZM115.886 87.0125H112.998V111.012H115.886V87.0125ZM106.624 88.845L-6.25293 159.604L6.49432 179.939L119.372 109.18L106.624 88.845ZM12.1207 169.771V77.3516H-11.8793V169.771H12.1207ZM6.53989 87.4904L128.563 10.2332L115.725 -10.0443L-6.29851 67.2129L6.53989 87.4904ZM122.144 12.0944H220.099V-11.9056H122.144V12.0944Z" fill="white"/>
</svg>
